/* XPM */
static char *_02e93f857ef436aed1df47da43ec10a[] = {
/* columns rows colors chars-per-pixel */
"64 64 50 1 ",
"  c None",
". c black",
"X c #2C2C2C",
"o c gray22",
"O c #044000",
"+ c #044C00",
"@ c #045800",
"# c #046400",
"$ c #047000",
"% c #047C00",
"& c #404000",
"* c #585400",
"= c #706C00",
"- c #484848",
"; c gray33",
": c #646464",
"> c gray44",
", c #7C7C7C",
"< c #048800",
"1 c #049800",
"2 c #04A400",
"3 c #00A800",
"4 c #04B000",
"5 c #04BC00",
"6 c #04C800",
"7 c #00D400",
"8 c #00E000",
"9 c #00FC00",
"0 c #54FC54",
"q c #60FC5C",
"w c #848400",
"e c #9C9C00",
"r c #B4AC00",
"t c #CCC400",
"y c #E4D800",
"u c #FCF400",
"i c #FCF440",
"p c #FCFC54",
"a c #FCFC7C",
"s c gray55",
"d c #989898",
"f c gray66",
"g c #B4B4B4",
"h c #FCFC9C",
"j c #FCFCB8",
"k c #C0C0C0",
"l c #D0D0D0",
"z c #FCFCD8",
"x c #ECECEC",
"c c gray99",
/* pixels */
"                                                                ",
"                                                                ",
"                                                                ",
"                                                                ",
"                                                                ",
"                                                                ",
"                                                                ",
"                                                                ",
"                                                                ",
"                                                                ",
"                              7                                 ",
"                             70$                                ",
"                             11$  2                             ",
"                              ## 262$                           ",
"                           5  771 773@                          ",
"                          50%O570$702@                          ",
"                           %#3%2$$@2@                           ",
"                        52<##O4$1@3O                            ",
"                     24 q0<0240$@404311 #2#                     ",
"                    290<96<0#14@@404%77$O<3$                    ",
"                    26#3#3##701@OO$+%17O3<3$                    ",
"                     $3#%##+07010$O O%#$$O                      ",
"                      $ O8+O#0#3O3$O32##44$                     ",
"                     $3%05<05<O##3<$O32@14$  #1                 ",
"                    993O%%355378#$17$3O@O1@ $##$                ",
"                   598%777%99<70<@38@O O@@+OO@#$                ",
"                  5 9%70720990<@3$$#O $@OO#   $                 ",
"                 531%@77 %904<@83@OO+$11@$3$@                   ",
"                  510O2<$<48$@O3$; $3+1<1$$@1@                  ",
"                    @340<O$$$3$3$O94$O+@4 O @                   ",
"                   77%0437O$O$ $3O74O<O$4@#@                    ",
"                  20%O%O77@O $O$3;#%OO@  O#@ @$@                ",
"                   2O % 7%0$O$3$O;$3%@3@ @@@O @$@               ",
"                       %3%22  987;$3%$$3@3@    @                ",
"                       %3%808 907; O$2O3@O@@                    ",
"                      8 %%909$ ;:; 73$ @  @O@                   ",
"                     82%0%293$ >,: 73$     @                    ",
"                     82 %   $  >s>  O                           ",
"                     2         sls                              ",
"                               sds                              ",
"                               s,s>                             ",
"                               g,s>                             ",
"                               gdfs                             ",
"                               kglkk                            ",
"                               kxcck>                           ",
"                               kxccf>                           ",
"                               klcl>                            ",
"                               kxcf>                            ",
"                               kxcfs                            ",
"                               kxcfs                            ",
"                               kxcls                            ",
"                               kxlcss                           ",
"                           uuuukxlcs;trrw                       ",
"                         hhr***gxcls;****w&                     ",
"                        ucr&...sllgs;...&*w&                    ",
"                        ucc=&..:ff::...&=w=&                    ",
"                         thccpcppyrywwrw=*&                     ",
"                         utew==***&&&&&&&&&                     ",
"                         ujiyteew==*******&                     ",
"                         ujzcjpuuyyrw====*&   :  :: ::          ",
"                         ujzhjpuuyyrrw=w=*&----;;;;;::: :       ",
"                         ujzajpuuyyrrw=w=*&Xoooooooo-;;: :      ",
"                          uzijpuuyyrrw=w*&..XXXXXXXoo--;:::     ",
"                           uuuuyyyrrw===&XXXXXXXoooo--;:        "
};
