<svg width="40" height="46" viewBox="0 0 40 46" fill="none" xmlns="http://www.w3.org/2000/svg">
<path d="M22.3438 18.1389H21.3438V19.1389H22.3438V18.1389ZM22.3438 1.125H23.3438C23.3438 0.699069 23.074 0.319882 22.6716 0.180257C22.2692 0.0406317 21.8225 0.171214 21.5587 0.505604L22.3438 1.125ZM1.25 27.8611L0.464922 27.2417C0.227579 27.5425 0.183009 27.9525 0.350168 28.2973C0.517326 28.6421 0.866816 28.8611 1.25 28.8611L1.25 27.8611ZM17.6562 27.8611H18.6562V26.8611H17.6562V27.8611ZM17.6562 44.875H16.6562C16.6562 45.3009 16.926 45.6801 17.3284 45.8197C17.7308 45.9594 18.1775 45.8288 18.4413 45.4944L17.6562 44.875ZM38.75 18.1389L39.5351 18.7583C39.7724 18.4575 39.817 18.0475 39.6498 17.7027C39.4827 17.3579 39.1332 17.1389 38.75 17.1389V18.1389ZM23.3438 18.1389V1.125H21.3438V18.1389H23.3438ZM21.5587 0.505604L0.464922 27.2417L2.03508 28.4805L23.1288 1.7444L21.5587 0.505604ZM1.25 28.8611H17.6562V26.8611H1.25V28.8611ZM16.6562 27.8611V44.875H18.6562V27.8611H16.6562ZM18.4413 45.4944L39.5351 18.7583L37.9649 17.5195L16.8712 44.2556L18.4413 45.4944ZM38.75 17.1389H22.3438V19.1389H38.75V17.1389Z" fill="#FFE500"/>
</svg>
