<svg width="4" height="20" viewBox="0 0 4 20" fill="none" xmlns="http://www.w3.org/2000/svg">
<path d="M0 2C0 1.60444 0.117298 1.21776 0.337061 0.88886C0.556824 0.559962 0.869181 0.303617 1.23463 0.152242C1.60009 0.000866562 2.00222 -0.0387401 2.39018 0.0384303C2.77814 0.115601 3.13451 0.306082 3.41421 0.585787C3.69392 0.865492 3.8844 1.22186 3.96157 1.60982C4.03874 1.99778 3.99913 2.39992 3.84776 2.76537C3.69638 3.13082 3.44004 3.44318 3.11114 3.66294C2.78224 3.8827 2.39556 4 2 4C1.46957 4 0.96086 3.78929 0.585787 3.41421C0.210714 3.03914 0 2.53043 0 2ZM2 12C2.39556 12 2.78224 11.8827 3.11114 11.6629C3.44004 11.4432 3.69638 11.1308 3.84776 10.7654C3.99913 10.3999 4.03874 9.99778 3.96157 9.60982C3.8844 9.22186 3.69392 8.86549 3.41421 8.58579C3.13451 8.30608 2.77814 8.1156 2.39018 8.03843C2.00222 7.96126 1.60009 8.00087 1.23463 8.15224C0.869181 8.30362 0.556824 8.55996 0.337061 8.88886C0.117298 9.21776 0 9.60444 0 10C0 10.5304 0.210714 11.0391 0.585787 11.4142C0.96086 11.7893 1.46957 12 2 12ZM2 20C2.39556 20 2.78224 19.8827 3.11114 19.6629C3.44004 19.4432 3.69638 19.1308 3.84776 18.7654C3.99913 18.3999 4.03874 17.9978 3.96157 17.6098C3.8844 17.2219 3.69392 16.8655 3.41421 16.5858C3.13451 16.3061 2.77814 16.1156 2.39018 16.0384C2.00222 15.9613 1.60009 16.0009 1.23463 16.1522C0.869181 16.3036 0.556824 16.56 0.337061 16.8889C0.117298 17.2178 0 17.6044 0 18C0 18.5304 0.210714 19.0391 0.585787 19.4142C0.96086 19.7893 1.46957 20 2 20Z" fill="white"/>
</svg>
