<svg width="46" height="46" viewBox="0 0 46 46" fill="none" xmlns="http://www.w3.org/2000/svg">
<path d="M1.125 44.875V32.375C1.125 28.9232 3.92322 26.125 7.375 26.125H16.75C20.2018 26.125 23 28.9232 23 32.375V44.875M32.375 32.375H38.625C42.0768 32.375 44.875 35.1732 44.875 38.625V44.875M12.0625 1.125C16.1407 1.125 19.875 4.25 19.875 8.9375C19.875 13.625 16.1407 16.75 12.0625 16.75C7.98427 16.75 4.25 13.625 4.25 8.9375C4.25 4.25 7.98427 1.125 12.0625 1.125ZM35.5 7.375C32.3327 7.375 29.25 9.86862 29.25 13.625C29.25 17.3814 32.3327 19.875 35.5 19.875C38.6673 19.875 41.75 17.3814 41.75 13.625C41.75 9.86862 38.6673 7.375 35.5 7.375Z" stroke="#FFE500" stroke-width="2" stroke-linecap="round" stroke-linejoin="round"/>
</svg>
