<svg width="40" height="46" viewBox="0 0 40 46" fill="none" xmlns="http://www.w3.org/2000/svg">
<path d="M1.25 29.875C1.25 26.3747 1.25 24.6245 1.93121 23.2876C2.53042 22.1115 3.48655 21.1554 4.66256 20.5562C5.99951 19.875 7.74967 19.875 11.25 19.875H28.75C32.2503 19.875 34.0005 19.875 35.3374 20.5562C36.5135 21.1554 37.4696 22.1115 38.0688 23.2876C38.75 24.6245 38.75 26.3747 38.75 29.875V34.875C38.75 38.3753 38.75 40.1255 38.0688 41.4624C37.4696 42.6385 36.5135 43.5946 35.3374 44.1938C34.0005 44.875 32.2503 44.875 28.75 44.875H11.25C7.74967 44.875 5.99951 44.875 4.66256 44.1938C3.48655 43.5946 2.53042 42.6385 1.93121 41.4624C1.25 40.1255 1.25 38.3753 1.25 34.875V29.875Z" stroke="#FFE500" stroke-width="2"/>
<path d="M10.625 19.875L10.625 10.5C10.625 7.58787 10.625 6.1318 11.1008 4.98323C11.7351 3.4518 12.9518 2.23509 14.4832 1.60075C15.6318 1.125 17.0879 1.125 20 1.125C22.9121 1.125 24.3682 1.125 25.5168 1.60075C27.0482 2.23509 28.2649 3.4518 28.8992 4.98323C29.375 6.1318 29.375 7.58786 29.375 10.5V19.875H10.625Z" stroke="#FFE500" stroke-width="2"/>
</svg>
