<svg width="50" height="50" viewBox="0 0 50 50" fill="none" xmlns="http://www.w3.org/2000/svg">
<path fill-rule="evenodd" clip-rule="evenodd" d="M1.12657 1.22847C1.84786 0.441896 2.82615 0 3.84621 0H46.1539C47.1739 0 48.1522 0.441895 48.8735 1.22847C49.5948 2.01505 50 3.08188 50 4.19427V37.7484C50 38.8608 49.5948 39.9276 48.8735 40.7142C48.1522 41.5008 47.1739 41.9427 46.1539 41.9427H14.063C14.0746 41.9426 14.0857 41.9381 14.0945 41.9299L14.063 41.8902L12.8366 40.3436L14.07 41.9526L6.30554 49.0304L6.29819 49.0371C5.73786 49.5427 5.05754 49.8648 4.33616 49.9658C3.61477 50.0669 2.88191 49.9428 2.22258 49.608C1.56326 49.2732 1.00449 48.7414 0.611117 48.0743C0.217744 47.4072 0.00588412 46.6321 0.000120699 45.839L0 45.8223L6.02923e-05 4.19427C6.02923e-05 3.08188 0.40528 2.01505 1.12657 1.22847ZM11.5929 38.744C12.2807 38.1019 13.1563 37.7486 14.0621 37.7484H46.1539V4.19427L3.84621 4.19427V45.8056L11.5929 38.744Z" fill="white"/>
</svg>
