<svg width="40" height="40" viewBox="0 0 40 40" fill="none" xmlns="http://www.w3.org/2000/svg">
<path fill-rule="evenodd" clip-rule="evenodd" d="M20 6.25C20.6904 6.25 21.25 6.80964 21.25 7.5V19.375C21.25 20.0654 20.6904 20.625 20 20.625C19.3096 20.625 18.75 20.0654 18.75 19.375V7.5C18.75 6.80964 19.3096 6.25 20 6.25Z" fill="#FF0000"/>
<path fill-rule="evenodd" clip-rule="evenodd" d="M13.5477 7.78696C13.9242 8.36557 13.7604 9.13989 13.1818 9.51645C10.9233 10.9863 9.20027 13.1465 8.26946 15.6753C7.33864 18.2041 7.24991 20.9659 8.01648 23.5492C8.78306 26.1325 10.3639 28.399 12.5234 30.0107C14.6829 31.6224 17.3054 32.4932 20 32.4932C22.6946 32.4932 25.3171 31.6224 27.4766 30.0107C29.6361 28.399 31.2169 26.1325 31.9835 23.5492C32.7501 20.9659 32.6614 18.2041 31.7305 15.6753C30.7997 13.1465 29.0767 10.9863 26.8182 9.51645C26.2396 9.13989 26.0758 8.36557 26.4523 7.78696C26.8289 7.20834 27.6032 7.04454 28.1818 7.4211C30.892 9.18486 32.9597 11.7772 34.0767 14.8117C35.1936 17.8462 35.3001 21.1605 34.3802 24.2604C33.4603 27.3604 31.5633 30.0801 28.9719 32.0142C26.3806 33.9483 23.2336 34.9932 20 34.9932C16.7664 34.9932 13.6194 33.9483 11.0281 32.0142C8.43668 30.0801 6.53967 27.3604 5.61978 24.2604C4.69989 21.1605 4.80637 17.8462 5.92335 14.8117C7.04033 11.7772 9.108 9.18486 11.8182 7.4211C12.3968 7.04454 13.1711 7.20834 13.5477 7.78696Z" fill="#FF0000"/>
</svg>
