<svg width="24" height="24" viewBox="0 0 24 24" fill="none" xmlns="http://www.w3.org/2000/svg">
<path d="M21.555 8.168L12.555 2.168C12.3907 2.05841 12.1976 1.99996 12 2C11.8028 2.00015 11.6101 2.0586 11.446 2.168L2.44602 8.168C2.26751 8.28703 2.13202 8.46031 2.05956 8.66225C1.98709 8.8642 1.9815 9.08409 2.0436 9.28946C2.10571 9.49482 2.23221 9.67477 2.40444 9.80272C2.57666 9.93067 2.78547 9.99983 3.00002 10H4.00002V21C4.00002 21.2652 4.10538 21.5196 4.29291 21.7071C4.48045 21.8946 4.7348 22 5.00002 22H19C19.2652 22 19.5196 21.8946 19.7071 21.7071C19.8947 21.5196 20 21.2652 20 21V10H21C21.2147 10.0003 21.4238 9.93141 21.5964 9.80361C21.7689 9.67582 21.8958 9.49588 21.9581 9.29041C22.0205 9.08495 22.0151 8.86486 21.9426 8.66272C21.8702 8.46058 21.7347 8.28712 21.556 8.168H21.555ZM18 20H6.00002V8.2L12 4.2L18 8.2V20Z" fill="white"/>
</svg>
