<svg width="80" height="89" viewBox="0 0 80 89" fill="none" xmlns="http://www.w3.org/2000/svg">
<path fill-rule="evenodd" clip-rule="evenodd" d="M5.73449 0.0319256C7.02251 -0.0974903 8.31939 0.168494 9.45248 0.794469L9.46877 0.803464L76.7131 38.4668L76.7216 38.4715C77.7137 39.0224 78.5407 39.8283 79.1171 40.8059C79.6951 41.7863 80 42.9037 80 44.0418C80 45.1799 79.6951 46.2973 79.1171 47.2777C78.5407 48.2554 77.7137 49.0613 76.7216 49.6121L76.7131 49.6169L9.45251 87.2892C8.31941 87.9152 7.0225 88.1811 5.73449 88.0517C4.44647 87.9223 3.22843 87.4036 2.24253 86.5647C1.25662 85.7258 0.549628 84.6065 0.215673 83.3559C-0.117879 82.1067 -0.0634887 80.7856 0.371555 79.5682L13.0368 44.0418L0.373137 8.51988C-0.0625381 7.30188 -0.118055 5.97759 0.215673 4.72776C0.549628 3.47708 1.25662 2.35779 2.24253 1.5189C3.22843 0.680018 4.44648 0.161341 5.73449 0.0319256ZM75.1708 41.2543L73.6141 44.0338L6.37147 6.37148L6.37306 6.3759L19.018 41.8455C19.5681 43.258 19.5681 44.8256 19.018 46.2381L6.37147 81.7122L73.6141 44.0499L73.6285 44.0418L75.1708 41.2543Z" fill="white"/>
<path fill-rule="evenodd" clip-rule="evenodd" d="M13.2477 44.0419C13.2477 42.2824 14.674 40.8561 16.4334 40.8561H41.9193C43.6788 40.8561 45.1051 42.2824 45.1051 44.0419C45.1051 45.8013 43.6788 47.2276 41.9193 47.2276H16.4334C14.674 47.2276 13.2477 45.8013 13.2477 44.0419Z" fill="white"/>
</svg>
