<svg width="50" height="50" viewBox="0 0 50 50" fill="none" xmlns="http://www.w3.org/2000/svg">
<path fill-rule="evenodd" clip-rule="evenodd" d="M22.1155 3.84618C12.0257 3.84618 3.84618 12.0257 3.84618 22.1155C3.84618 32.2054 12.0257 40.3849 22.1155 40.3849C32.2054 40.3849 40.3849 32.2054 40.3849 22.1155C40.3849 12.0257 32.2054 3.84618 22.1155 3.84618ZM0 22.1155C0 9.90147 9.90147 0 22.1155 0C34.3296 0 44.2311 9.90147 44.2311 22.1155C44.2311 34.3296 34.3296 44.2311 22.1155 44.2311C9.90147 44.2311 0 34.3296 0 22.1155Z" fill="white"/>
<path fill-rule="evenodd" clip-rule="evenodd" d="M35.0343 35.0348C35.7853 34.2837 37.0029 34.2837 37.754 35.0348L49.4367 46.7175C50.1878 47.4686 50.1878 48.6862 49.4367 49.4372C48.6857 50.1882 47.4681 50.1882 46.7171 49.4372L35.0343 37.7544C34.2833 37.0034 34.2833 35.7858 35.0343 35.0348Z" fill="white"/>
</svg>
