<svg width="80" height="80" viewBox="0 0 80 80" fill="none" xmlns="http://www.w3.org/2000/svg">
<path d="M20.9067 74.7134L34.9067 60.7134L38.0033 63.8134C38.3108 64.1318 38.6786 64.3857 39.0853 64.5604C39.492 64.7351 39.9294 64.8271 40.372 64.8309C40.8146 64.8348 41.2535 64.7505 41.6632 64.5828C42.0728 64.4152 42.445 64.1677 42.758 63.8548C43.071 63.5418 43.3185 63.1696 43.4861 62.7599C43.6537 62.3503 43.738 61.9114 43.7342 61.4688C43.7303 61.0262 43.6384 60.5888 43.4637 60.1821C43.289 59.7754 43.035 59.4076 42.7167 59.1001L40.1367 56.5168L69.47 36.9534C69.9264 36.6489 70.3006 36.2365 70.5593 35.7527C70.8181 35.2689 70.9534 34.7287 70.9533 34.1801V12.3568C70.9533 11.4727 70.6021 10.6249 69.977 9.99975C69.3519 9.37463 68.5041 9.02344 67.62 9.02344H45.8233C45.2747 9.02336 44.7345 9.1587 44.2507 9.41745C43.7669 9.67621 43.3545 10.0504 43.05 10.5068L23.4867 39.8401L20.9067 37.2601C20.2781 36.6351 19.427 36.2853 18.5406 36.2878C17.6542 36.2903 16.805 36.6449 16.18 37.2734C15.555 37.902 15.2052 38.7531 15.2077 39.6395C15.2102 40.526 15.5648 41.3751 16.1933 42.0001L19.2933 45.1001L5.29334 59.1001C4.66843 59.7252 4.31738 60.5729 4.31738 61.4568C4.31738 62.3407 4.66843 63.1883 5.29334 63.8134L16.2 74.7201C16.8257 75.3421 17.6725 75.6907 18.5547 75.6894C19.437 75.6881 20.2827 75.3372 20.9067 74.7134ZM47.6067 15.6901H64.31V32.3901L35.3333 51.7034C35 51.3701 27.8333 44.2034 28.29 44.6601L47.6067 15.6901ZM24 49.8001L30.2 56.0001L18.55 67.6668L12.3567 61.4501L24 49.8001Z" fill="white"/>
</svg>
